<?xml version="1.0" standalone="no"?>
<!DOCTYPE svg PUBLIC "-//W3C//DTD SVG 20010904//EN"
 "http://www.w3.org/TR/2001/REC-SVG-20010904/DTD/svg10.dtd">
<svg version="1.0" xmlns="http://www.w3.org/2000/svg"
 width="512.000000pt" height="512.000000pt" viewBox="0 0 512.000000 512.000000"
 preserveAspectRatio="xMidYMid meet">

<g transform="translate(0.000000,512.000000) scale(0.100000,-0.100000)"
fill="#000000" stroke="none">
<path d="M0 2560 l0 -2560 2560 0 2560 0 0 2560 0 2560 -2560 0 -2560 0 0
-2560z m1790 1980 c380 -12 939 -39 960 -46 8 -3 44 -7 80 -10 137 -10 540
-130 523 -157 -3 -5 -2 -7 4 -4 17 11 257 -116 325 -172 7 -6 49 -38 93 -73
102 -79 224 -201 303 -303 35 -44 66 -85 72 -91 56 -71 170 -280 170 -314 0
-12 4 -19 9 -16 8 5 64 -134 92 -227 89 -292 103 -669 39 -974 -33 -154 -118
-402 -133 -387 -4 4 -7 -3 -7 -15 0 -26 -76 -171 -127 -244 -18 -26 -33 -51
-33 -56 0 -5 -3 -11 -7 -13 -5 -1 -33 -37 -65 -78 -94 -124 -215 -241 -398
-383 -80 -62 -288 -177 -320 -177 -13 0 -20 -3 -16 -7 15 -15 -234 -100 -387
-132 -339 -72 -713 -50 -1032 60 -146 50 -177 64 -168 74 5 4 3 5 -3 2 -14 -8
-127 46 -234 112 -293 182 -549 460 -700 761 -22 45 -38 86 -34 92 4 6 3 8 -3
5 -6 -4 -16 5 -21 21 -6 15 -22 59 -37 97 -120 321 -150 721 -80 1070 45 224
121 414 250 630 86 144 121 228 137 328 10 64 9 85 -6 143 -40 163 -140 263
-388 386 -91 45 -118 62 -106 69 15 9 264 27 433 32 232 7 527 6 815 -3z"/>
<path d="M2430 3864 c-374 -44 -712 -253 -922 -571 -239 -363 -285 -843 -118
-1239 23 -55 44 -108 47 -119 4 -11 9 -22 13 -25 4 -3 35 -46 69 -96 69 -105
195 -238 293 -311 37 -28 65 -52 63 -55 -2 -2 5 -5 17 -5 12 -1 24 -6 27 -10
10 -15 143 -80 216 -106 144 -51 258 -70 425 -70 132 0 172 4 266 25 339 79
631 290 808 583 18 30 36 52 39 48 4 -3 7 3 7 14 0 11 13 46 29 79 35 73 73
191 97 304 23 106 25 368 5 480 -16 90 -83 300 -111 347 -11 19 -20 44 -20 55
0 12 -3 18 -6 15 -4 -4 -23 20 -42 53 -51 86 -227 300 -247 300 -13 0 -143
109 -137 115 4 4 3 5 -3 3 -5 -1 -55 20 -110 48 -109 56 -218 95 -335 119 -73
16 -300 27 -370 19z m-625 -1612 c13 -9 36 -44 53 -77 92 -186 254 -320 465
-387 82 -25 105 -28 232 -28 110 0 156 4 215 20 122 34 231 93 317 174 42 39
81 70 87 68 6 -2 8 0 4 3 -4 4 3 22 16 39 13 17 40 63 60 101 20 39 46 76 58
84 32 20 78 32 78 20 0 -6 4 -8 9 -5 16 10 59 -12 76 -37 30 -47 26 -82 -20
-175 -24 -49 -56 -101 -70 -116 -14 -15 -25 -30 -25 -34 0 -12 -134 -142 -147
-142 -7 0 -13 -6 -13 -13 0 -7 -30 -31 -67 -54 -202 -123 -354 -167 -578 -166
-242 1 -429 63 -627 206 -61 44 -168 151 -168 168 0 4 -14 22 -30 40 -17 17
-49 70 -72 116 -32 68 -39 91 -35 120 14 85 114 126 182 75z"/>
</g>
</svg>
