<?xml version="1.0" encoding="UTF-8"?>
<!DOCTYPE svg PUBLIC "-//W3C//DTD SVG 1.1//EN" "http://www.w3.org/Graphics/SVG/1.1/DTD/svg11.dtd">
<svg xmlns="http://www.w3.org/2000/svg" version="1.1" width="512px" height="512px" style="shape-rendering:geometricPrecision; text-rendering:geometricPrecision; image-rendering:optimizeQuality; fill-rule:evenodd; clip-rule:evenodd" xmlns:xlink="http://www.w3.org/1999/xlink">
<g><path style="opacity:0.998" fill="#fefffe" d="M 103.5,56.5 C 156.21,56.4748 208.876,57.9748 261.5,61C 341.723,66.6102 399.223,105.444 434,177.5C 457.258,236.879 454.258,294.879 425,351.5C 381.372,421.059 318.872,453.559 237.5,449C 171.6,441.492 121.433,409.659 87,353.5C 54.8608,293.614 52.5274,232.614 80,170.5C 86.6524,158.532 93.3191,146.532 100,134.5C 108.04,114.891 104.54,97.7245 89.5,83C 85.1855,79.1759 80.5188,75.8425 75.5,73C 67.6759,69.255 60.0092,65.255 52.5,61C 55.3004,59.7681 58.3004,59.1015 61.5,59C 75.6626,58.2407 89.6626,57.4073 103.5,56.5 Z M 245.5,124.5 C 299.202,123.089 339.368,145.422 366,191.5C 387.796,233.314 387.963,275.981 366.5,319.5C 334.61,371.761 288.276,392.928 227.5,383C 175.187,368.353 143.02,334.52 131,281.5C 122.115,222.089 142.282,175.589 191.5,142C 208.492,132.612 226.492,126.779 245.5,124.5 Z"/></g>
<g><path style="opacity:0.993" fill="#fefffe" d="M 171.5,283.5 C 175.974,283.434 179.64,285.101 182.5,288.5C 200.276,324.395 229.276,339.895 269.5,335C 296.232,329.934 315.398,315.101 327,290.5C 333.195,282.761 339.862,282.095 347,288.5C 350.407,295.168 349.741,301.501 345,307.5C 318.994,348.238 281.828,364.738 233.5,357C 199.704,349.526 175.871,330.026 162,298.5C 160.909,290.765 164.076,285.765 171.5,283.5 Z"/></g>
</svg>
